<svg width="20" height="21" viewBox="0 0 20 21" fill="none" xmlns="http://www.w3.org/2000/svg">
<path d="M17.0703 0.811279H2.92969C1.31439 0.811279 0 2.12567 0 3.74097V17.8816C0 19.4969 1.31439 20.8113 2.92969 20.8113H17.0703C18.6856 20.8113 20 19.4969 20 17.8816V3.74097C20 2.12567 18.6856 0.811279 17.0703 0.811279ZM7.07031 16.6707H4.72656V8.46753H7.07031V16.6707ZM7.07031 7.29565H4.72656V4.9519H7.07031V7.29565ZM15.2734 16.6707H12.9297V11.9832C12.9297 11.3371 12.4039 10.8113 11.7578 10.8113C11.1118 10.8113 10.5859 11.3371 10.5859 11.9832V16.6707H8.24219V8.46753H10.5859V8.90927C11.2 8.71838 11.5988 8.46753 12.3438 8.46753C13.9333 8.46921 15.2734 9.89514 15.2734 11.5803V16.6707Z" fill="#3D3D3F"/>
</svg>
