<svg width="20" height="17" viewBox="0 0 20 17" fill="none" xmlns="http://www.w3.org/2000/svg">
<path d="M7.46137 16.3688C6.5965 16.3688 5.70631 16.2988 4.81077 16.1584C3.23348 15.9109 1.6368 15.0859 1.18499 14.8388L0 14.191L1.28295 13.769C2.68538 13.3079 3.5385 13.0218 4.59456 12.5738C3.53713 12.0617 2.72216 11.1406 2.32986 9.94977L2.03139 9.04371L2.27614 9.08109C2.04406 8.84717 1.8608 8.60975 1.71874 8.39384C1.21353 7.62647 0.946041 6.68882 1.00296 5.88529L1.05911 5.09443L1.53259 5.27784C1.33285 4.90064 1.1885 4.49781 1.10366 4.0756C0.896908 3.04594 1.06994 1.95203 1.59103 0.995461L2.00347 0.23832L2.55507 0.900856C4.29961 2.9965 6.50922 4.23963 9.13174 4.60355C9.02462 3.86518 9.10489 3.1526 9.37054 2.51386C9.67983 1.77015 10.2301 1.1395 10.9613 0.68998C11.7733 0.190865 12.7581 -0.0509869 13.7342 0.00898011C14.7698 0.0726092 15.7101 0.46064 16.4568 1.13187C16.8215 1.03712 17.0902 0.935951 17.4534 0.799233C17.6719 0.716988 17.9197 0.623604 18.2298 0.516793L19.3723 0.123116L18.6272 2.25111C18.6764 2.24699 18.727 2.24348 18.78 2.24119L20.0001 2.18595L19.2789 3.17152C19.2376 3.22797 19.2271 3.244 19.2124 3.26612C19.1543 3.35371 19.082 3.46265 18.0921 4.78437C17.8443 5.11533 17.7206 5.54639 17.7436 5.99836C17.8314 7.71589 17.6206 9.26984 17.1169 10.6169C16.6406 11.8913 15.9023 12.9847 14.923 13.8669C13.7112 14.9582 12.1659 15.7054 10.33 16.0875C9.42944 16.2748 8.46234 16.3688 7.46137 16.3688Z" fill="#3D3D3F"/>
</svg>
