<svg width="20" height="17" viewBox="0 0 20 17" fill="none" xmlns="http://www.w3.org/2000/svg">
<path d="M0 4.40556L0.271912 5.41767L0.292511 5.40391C0.847016 5.03576 1.28555 4.74497 1.77826 4.74497C2.21848 4.74497 2.63977 4.98194 2.95349 5.4487C4.6605 7.98647 5.98069 16.8114 9.17497 16.8114C12.3276 16.8114 20.2452 7.18962 19.9942 2.84795C19.8694 0.691181 18.3275 0.368896 17.4191 0.368896C15.6702 0.368896 13.9269 1.45103 13.047 3.52065C14.5487 3.2794 15.6128 4.12272 15.4984 5.66718C15.3662 7.4214 12.4292 11.9542 11.0625 11.9542C8.72605 11.9542 7.63291 4.06095 6.8512 1.66492C6.65543 1.06682 6.08933 0.695156 5.37278 0.695156C4.86405 0.695156 4.33747 0.890698 3.88932 1.24631C2.85675 2.06517 1.80405 2.90758 0.782319 3.75701L0 4.40556Z" fill="#3D3D3F"/>
</svg>
